<?xml version="1.0" encoding="UTF-8" standalone="no"?>
<!DOCTYPE svg PUBLIC "-//W3C//DTD SVG 1.1//EN"
 "http://www.w3.org/Graphics/SVG/1.1/DTD/svg11.dtd">
<!-- Generated by graphviz version 2.40.1 (20161225.0304)
 -->
<!-- Title: dependency&#45;cruiser output Pages: 1 -->
<svg width="333pt" height="569pt"
 viewBox="0.00 0.00 333.00 569.23" xmlns="http://www.w3.org/2000/svg" xmlns:xlink="http://www.w3.org/1999/xlink">
<g id="graph0" class="graph" transform="scale(1 1) rotate(0) translate(4 565.2304)">
<title>dependency&#45;cruiser output</title>
<polygon fill="#ffffff" stroke="transparent" points="-4,4 -4,-565.2304 329,-565.2304 329,4 -4,4"/>
<g id="clust1" class="cluster">
<title>cluster_src</title>
<path fill="#ffffff" stroke="#000000" stroke-width="2" d="M20,-27.0575C20,-27.0575 251,-27.0575 251,-27.0575 257,-27.0575 263,-33.0575 263,-39.0575 263,-39.0575 263,-491.0575 263,-491.0575 263,-497.0575 257,-503.0575 251,-503.0575 251,-503.0575 20,-503.0575 20,-503.0575 14,-503.0575 8,-497.0575 8,-491.0575 8,-491.0575 8,-39.0575 8,-39.0575 8,-33.0575 14,-27.0575 20,-27.0575"/>
<text text-anchor="middle" x="135.5" y="-491.8575" font-family="Helvetica,sans-Serif" font-weight="bold" font-size="9.00" fill="#000000">src</text>
</g>
<g id="clust2" class="cluster">
<title>cluster_src/apis</title>
<path fill="#ffffff" stroke="#000000" stroke-width="2" d="M90,-155.0575C90,-155.0575 241.5,-155.0575 241.5,-155.0575 247.5,-155.0575 253.5,-161.0575 253.5,-167.0575 253.5,-167.0575 253.5,-225.0575 253.5,-225.0575 253.5,-231.0575 247.5,-237.0575 241.5,-237.0575 241.5,-237.0575 90,-237.0575 90,-237.0575 84,-237.0575 78,-231.0575 78,-225.0575 78,-225.0575 78,-167.0575 78,-167.0575 78,-161.0575 84,-155.0575 90,-155.0575"/>
<text text-anchor="middle" x="165.75" y="-225.8575" font-family="Helvetica,sans-Serif" font-weight="bold" font-size="9.00" fill="#000000">apis</text>
</g>
<g id="clust3" class="cluster">
<title>cluster_src/cliDocs</title>
<path fill="#ffffff" stroke="#000000" stroke-width="2" d="M104.5,-245.0575C104.5,-245.0575 150.5,-245.0575 150.5,-245.0575 156.5,-245.0575 162.5,-251.0575 162.5,-257.0575 162.5,-257.0575 162.5,-285.0575 162.5,-285.0575 162.5,-291.0575 156.5,-297.0575 150.5,-297.0575 150.5,-297.0575 104.5,-297.0575 104.5,-297.0575 98.5,-297.0575 92.5,-291.0575 92.5,-285.0575 92.5,-285.0575 92.5,-257.0575 92.5,-257.0575 92.5,-251.0575 98.5,-245.0575 104.5,-245.0575"/>
<text text-anchor="middle" x="127.5" y="-285.8575" font-family="Helvetica,sans-Serif" font-weight="bold" font-size="9.00" fill="#000000">cliDocs</text>
</g>
<g id="clust4" class="cluster">
<title>cluster_src/enums</title>
<path fill="#ffffff" stroke="#000000" stroke-width="2" d="M189,-245.0575C189,-245.0575 243,-245.0575 243,-245.0575 249,-245.0575 255,-251.0575 255,-257.0575 255,-257.0575 255,-285.0575 255,-285.0575 255,-291.0575 249,-297.0575 243,-297.0575 243,-297.0575 189,-297.0575 189,-297.0575 183,-297.0575 177,-291.0575 177,-285.0575 177,-285.0575 177,-257.0575 177,-257.0575 177,-251.0575 183,-245.0575 189,-245.0575"/>
<text text-anchor="middle" x="216" y="-285.8575" font-family="Helvetica,sans-Serif" font-weight="bold" font-size="9.00" fill="#000000">enums</text>
</g>
<g id="clust5" class="cluster">
<title>cluster_src/interfaces</title>
<path fill="#ffffff" stroke="#000000" stroke-width="2" d="M189,-35.0575C189,-35.0575 243,-35.0575 243,-35.0575 249,-35.0575 255,-41.0575 255,-47.0575 255,-47.0575 255,-135.0575 255,-135.0575 255,-141.0575 249,-147.0575 243,-147.0575 243,-147.0575 189,-147.0575 189,-147.0575 183,-147.0575 177,-141.0575 177,-135.0575 177,-135.0575 177,-47.0575 177,-47.0575 177,-41.0575 183,-35.0575 189,-35.0575"/>
<text text-anchor="middle" x="216" y="-135.8575" font-family="Helvetica,sans-Serif" font-weight="bold" font-size="9.00" fill="#000000">interfaces</text>
</g>
<g id="clust6" class="cluster">
<title>cluster_src/loggers</title>
<path fill="#ffffff" stroke="#000000" stroke-width="2" d="M95,-305.0575C95,-305.0575 239,-305.0575 239,-305.0575 245,-305.0575 251,-311.0575 251,-317.0575 251,-317.0575 251,-375.0575 251,-375.0575 251,-381.0575 245,-387.0575 239,-387.0575 239,-387.0575 95,-387.0575 95,-387.0575 89,-387.0575 83,-381.0575 83,-375.0575 83,-375.0575 83,-317.0575 83,-317.0575 83,-311.0575 89,-305.0575 95,-305.0575"/>
<text text-anchor="middle" x="167" y="-375.8575" font-family="Helvetica,sans-Serif" font-weight="bold" font-size="9.00" fill="#000000">loggers</text>
</g>
<g id="clust7" class="cluster">
<title>cluster_src/templates</title>
<path fill="#ffffff" stroke="#000000" stroke-width="2" d="M99,-395.0575C99,-395.0575 156,-395.0575 156,-395.0575 162,-395.0575 168,-401.0575 168,-407.0575 168,-407.0575 168,-465.0575 168,-465.0575 168,-471.0575 162,-477.0575 156,-477.0575 156,-477.0575 99,-477.0575 99,-477.0575 93,-477.0575 87,-471.0575 87,-465.0575 87,-465.0575 87,-407.0575 87,-407.0575 87,-401.0575 93,-395.0575 99,-395.0575"/>
<text text-anchor="middle" x="127.5" y="-465.8575" font-family="Helvetica,sans-Serif" font-weight="bold" font-size="9.00" fill="#000000">templates</text>
</g>
<!-- fs -->
<g id="node1" class="node">
<title>fs</title>
<path fill="#ffffcc" stroke="#c0c0c0" d="M319,-557.0575C319,-557.0575 277,-557.0575 277,-557.0575 274,-557.0575 271,-554.0575 271,-551.0575 271,-551.0575 271,-545.0575 271,-545.0575 271,-542.0575 274,-539.0575 277,-539.0575 277,-539.0575 319,-539.0575 319,-539.0575 322,-539.0575 325,-542.0575 325,-545.0575 325,-545.0575 325,-551.0575 325,-551.0575 325,-554.0575 322,-557.0575 319,-557.0575"/>
<text text-anchor="middle" x="298" y="-545.8575" font-family="Helvetica,sans-Serif" font-size="9.00" fill="#c0c0c0">fs</text>
</g>
<!-- path -->
<g id="node2" class="node">
<title>path</title>
<path fill="#ffffcc" stroke="#c0c0c0" d="M319,-29.0575C319,-29.0575 277,-29.0575 277,-29.0575 274,-29.0575 271,-26.0575 271,-23.0575 271,-23.0575 271,-17.0575 271,-17.0575 271,-14.0575 274,-11.0575 277,-11.0575 277,-11.0575 319,-11.0575 319,-11.0575 322,-11.0575 325,-14.0575 325,-17.0575 325,-17.0575 325,-23.0575 325,-23.0575 325,-26.0575 322,-29.0575 319,-29.0575"/>
<text text-anchor="middle" x="298" y="-17.8575" font-family="Helvetica,sans-Serif" font-size="9.00" fill="#c0c0c0">path</text>
</g>
<!-- querystring -->
<g id="node3" class="node">
<title>querystring</title>
<path fill="#ffffcc" stroke="#c0c0c0" d="M241,-529.0575C241,-529.0575 191,-529.0575 191,-529.0575 188,-529.0575 185,-526.0575 185,-523.0575 185,-523.0575 185,-517.0575 185,-517.0575 185,-514.0575 188,-511.0575 191,-511.0575 191,-511.0575 241,-511.0575 241,-511.0575 244,-511.0575 247,-514.0575 247,-517.0575 247,-517.0575 247,-523.0575 247,-523.0575 247,-526.0575 244,-529.0575 241,-529.0575"/>
<text text-anchor="middle" x="216" y="-517.8575" font-family="Helvetica,sans-Serif" font-size="9.00" fill="#c0c0c0">querystring</text>
</g>
<!-- src/apis/AvantationAPI.ts -->
<g id="node4" class="node">
<title>src/apis/AvantationAPI.ts</title>
<g id="a_node4"><a xlink:href="src/apis/AvantationAPI.ts" xlink:title="AvantationAPI.ts">
<path fill="#ddfeff" stroke="#000000" d="M163,-211.0575C163,-211.0575 92,-211.0575 92,-211.0575 89,-211.0575 86,-208.0575 86,-205.0575 86,-205.0575 86,-199.0575 86,-199.0575 86,-196.0575 89,-193.0575 92,-193.0575 92,-193.0575 163,-193.0575 163,-193.0575 166,-193.0575 169,-196.0575 169,-199.0575 169,-199.0575 169,-205.0575 169,-205.0575 169,-208.0575 166,-211.0575 163,-211.0575"/>
<text text-anchor="middle" x="127.5" y="-199.8575" font-family="Helvetica,sans-Serif" font-size="9.00" fill="#000000">AvantationAPI.ts</text>
</a>
</g>
</g>
<!-- src/apis/AvantationAPI.ts&#45;&gt;fs -->
<g id="edge6" class="edge">
<title>src/apis/AvantationAPI.ts&#45;&gt;fs</title>
<path fill="none" stroke="#c0c0c0" d="M141.857,-211.3583C151.4632,-218.4791 163.3445,-229.2404 169,-242.0575 175.5737,-256.9556 165.9536,-523.0934 177,-535.0575 197.7153,-557.494 233.6095,-558.7396 260.9397,-555.5707"/>
<polygon fill="#c0c0c0" stroke="#c0c0c0" points="261.5248,-559.023 270.9454,-554.175 260.5577,-552.0901 261.5248,-559.023"/>
</g>
<!-- src/apis/AvantationAPI.ts&#45;&gt;path -->
<g id="edge7" class="edge">
<title>src/apis/AvantationAPI.ts&#45;&gt;path</title>
<path fill="none" stroke="#c0c0c0" d="M128.8101,-192.9071C133.6162,-160.6994 151.3441,-53.3686 177,-32.0575 199.937,-13.005 234.3995,-11.324 260.6861,-13.645"/>
<polygon fill="#c0c0c0" stroke="#c0c0c0" points="260.3518,-17.1293 270.6759,-14.7497 261.1211,-10.1717 260.3518,-17.1293"/>
</g>
<!-- src/apis/AvantationAPI.ts&#45;&gt;querystring -->
<g id="edge8" class="edge">
<title>src/apis/AvantationAPI.ts&#45;&gt;querystring</title>
<path fill="none" stroke="#c0c0c0" d="M141.3437,-211.1016C150.9683,-218.2413 163.0906,-229.135 169,-242.0575 182.6975,-272.0111 171.3391,-357.6108 177,-390.0575 184.0556,-430.4982 199.5703,-476.1036 208.7628,-501.1145"/>
<polygon fill="#c0c0c0" stroke="#c0c0c0" points="205.5976,-502.6426 212.3806,-510.7815 212.1535,-500.1891 205.5976,-502.6426"/>
</g>
<!-- src/apis/Util.ts -->
<g id="node5" class="node">
<title>src/apis/Util.ts</title>
<g id="a_node5"><a xlink:href="src/apis/Util.ts" xlink:title="Util.ts">
<path fill="#ddfeff" stroke="#000000" d="M237,-181.0575C237,-181.0575 195,-181.0575 195,-181.0575 192,-181.0575 189,-178.0575 189,-175.0575 189,-175.0575 189,-169.0575 189,-169.0575 189,-166.0575 192,-163.0575 195,-163.0575 195,-163.0575 237,-163.0575 237,-163.0575 240,-163.0575 243,-166.0575 243,-169.0575 243,-169.0575 243,-175.0575 243,-175.0575 243,-178.0575 240,-181.0575 237,-181.0575"/>
<text text-anchor="middle" x="216" y="-169.8575" font-family="Helvetica,sans-Serif" font-size="9.00" fill="#000000">Util.ts</text>
</a>
</g>
</g>
<!-- src/apis/AvantationAPI.ts&#45;&gt;src/apis/Util.ts -->
<g id="edge4" class="edge">
<title>src/apis/AvantationAPI.ts&#45;&gt;src/apis/Util.ts</title>
<path fill="none" stroke="#000000" stroke-width="2" stroke-opacity="0.466667" d="M154.0529,-193.0566C162.0306,-190.3523 170.9271,-187.3365 179.4328,-184.4532"/>
<polygon fill="#000000" fill-opacity="0.466667" stroke="#000000" stroke-width="2" stroke-opacity="0.466667" points="180.8129,-187.6811 189.1599,-181.1559 178.5656,-181.0516 180.8129,-187.6811"/>
</g>
<!-- src/apis/frontend.ts -->
<g id="node6" class="node">
<title>src/apis/frontend.ts</title>
<g id="a_node6"><a xlink:href="src/apis/frontend.ts" xlink:title="frontend.ts">
<path fill="#ddfeff" stroke="#000000" d="M239.5,-211.0575C239.5,-211.0575 192.5,-211.0575 192.5,-211.0575 189.5,-211.0575 186.5,-208.0575 186.5,-205.0575 186.5,-205.0575 186.5,-199.0575 186.5,-199.0575 186.5,-196.0575 189.5,-193.0575 192.5,-193.0575 192.5,-193.0575 239.5,-193.0575 239.5,-193.0575 242.5,-193.0575 245.5,-196.0575 245.5,-199.0575 245.5,-199.0575 245.5,-205.0575 245.5,-205.0575 245.5,-208.0575 242.5,-211.0575 239.5,-211.0575"/>
<text text-anchor="middle" x="216" y="-199.8575" font-family="Helvetica,sans-Serif" font-size="9.00" fill="#000000">frontend.ts</text>
</a>
</g>
</g>
<!-- src/apis/AvantationAPI.ts&#45;&gt;src/apis/frontend.ts -->
<g id="edge5" class="edge">
<title>src/apis/AvantationAPI.ts&#45;&gt;src/apis/frontend.ts</title>
<path fill="none" stroke="#000000" stroke-width="2" stroke-opacity="0.466667" d="M169.1585,-202.0575C171.5263,-202.0575 173.9039,-202.0575 176.2642,-202.0575"/>
<polygon fill="#000000" fill-opacity="0.466667" stroke="#000000" stroke-width="2" stroke-opacity="0.466667" points="176.4174,-205.5576 186.4174,-202.0575 176.4173,-198.5576 176.4174,-205.5576"/>
</g>
<!-- src/enums/OpenApi.ts -->
<g id="node8" class="node">
<title>src/enums/OpenApi.ts</title>
<g id="a_node8"><a xlink:href="src/enums/OpenApi.ts" xlink:title="OpenApi.ts">
<path fill="#ddfeff" stroke="#000000" d="M241,-271.0575C241,-271.0575 191,-271.0575 191,-271.0575 188,-271.0575 185,-268.0575 185,-265.0575 185,-265.0575 185,-259.0575 185,-259.0575 185,-256.0575 188,-253.0575 191,-253.0575 191,-253.0575 241,-253.0575 241,-253.0575 244,-253.0575 247,-256.0575 247,-259.0575 247,-259.0575 247,-265.0575 247,-265.0575 247,-268.0575 244,-271.0575 241,-271.0575"/>
<text text-anchor="middle" x="216" y="-259.8575" font-family="Helvetica,sans-Serif" font-size="9.00" fill="#000000">OpenApi.ts</text>
</a>
</g>
</g>
<!-- src/apis/AvantationAPI.ts&#45;&gt;src/enums/OpenApi.ts -->
<g id="edge1" class="edge">
<title>src/apis/AvantationAPI.ts&#45;&gt;src/enums/OpenApi.ts</title>
<path fill="none" stroke="#000000" stroke-width="2" stroke-opacity="0.466667" d="M138.5692,-211.2798C148.3881,-219.282 163.2631,-230.9756 177,-240.0575 181.0813,-242.7559 185.5131,-245.4571 189.8763,-247.9968"/>
<polygon fill="#000000" fill-opacity="0.466667" stroke="#000000" stroke-width="2" stroke-opacity="0.466667" points="188.1744,-251.0552 198.602,-252.9302 191.6196,-244.9617 188.1744,-251.0552"/>
</g>
<!-- src/interfaces/index.ts -->
<g id="node12" class="node">
<title>src/interfaces/index.ts</title>
<g id="a_node12"><a xlink:href="src/interfaces/index.ts" xlink:title="index.ts">
<path fill="#ddfeff" stroke="#000000" d="M237,-61.0575C237,-61.0575 195,-61.0575 195,-61.0575 192,-61.0575 189,-58.0575 189,-55.0575 189,-55.0575 189,-49.0575 189,-49.0575 189,-46.0575 192,-43.0575 195,-43.0575 195,-43.0575 237,-43.0575 237,-43.0575 240,-43.0575 243,-46.0575 243,-49.0575 243,-49.0575 243,-55.0575 243,-55.0575 243,-58.0575 240,-61.0575 237,-61.0575"/>
<text text-anchor="middle" x="216" y="-49.8575" font-family="Helvetica,sans-Serif" font-size="9.00" fill="#000000">index.ts</text>
</a>
</g>
</g>
<!-- src/apis/AvantationAPI.ts&#45;&gt;src/interfaces/index.ts -->
<g id="edge2" class="edge">
<title>src/apis/AvantationAPI.ts&#45;&gt;src/interfaces/index.ts</title>
<path fill="none" stroke="#000000" stroke-width="2" stroke-opacity="0.466667" d="M128.2987,-192.8137C130.8557,-168.7884 140.9245,-103.705 177,-67.0575 178.0496,-65.9913 179.1833,-64.9995 180.3806,-64.077"/>
<polygon fill="#000000" fill-opacity="0.466667" stroke="#000000" stroke-width="2" stroke-opacity="0.466667" points="182.1948,-67.0703 188.9906,-58.9421 178.6092,-61.0583 182.1948,-67.0703"/>
</g>
<!-- src/loggers/colors.ts -->
<g id="node15" class="node">
<title>src/loggers/colors.ts</title>
<g id="a_node15"><a xlink:href="src/loggers/colors.ts" xlink:title="colors.ts">
<path fill="#ddfeff" stroke="#000000" d="M237,-331.0575C237,-331.0575 195,-331.0575 195,-331.0575 192,-331.0575 189,-328.0575 189,-325.0575 189,-325.0575 189,-319.0575 189,-319.0575 189,-316.0575 192,-313.0575 195,-313.0575 195,-313.0575 237,-313.0575 237,-313.0575 240,-313.0575 243,-316.0575 243,-319.0575 243,-319.0575 243,-325.0575 243,-325.0575 243,-328.0575 240,-331.0575 237,-331.0575"/>
<text text-anchor="middle" x="216" y="-319.8575" font-family="Helvetica,sans-Serif" font-size="9.00" fill="#000000">colors.ts</text>
</a>
</g>
</g>
<!-- src/apis/AvantationAPI.ts&#45;&gt;src/loggers/colors.ts -->
<g id="edge3" class="edge">
<title>src/apis/AvantationAPI.ts&#45;&gt;src/loggers/colors.ts</title>
<path fill="none" stroke="#000000" stroke-width="2" stroke-opacity="0.466667" d="M141.0276,-211.2542C150.495,-218.4697 162.5592,-229.3915 169,-242.0575 180.795,-265.2527 162.3687,-278.5387 177,-300.0575 178.7211,-302.5888 180.8353,-304.8619 183.1811,-306.8963"/>
<polygon fill="#000000" fill-opacity="0.466667" stroke="#000000" stroke-width="2" stroke-opacity="0.466667" points="181.6104,-310.0682 191.8136,-312.922 185.6171,-304.3282 181.6104,-310.0682"/>
</g>
<!-- src/apis/frontend.ts&#45;&gt;fs -->
<g id="edge9" class="edge">
<title>src/apis/frontend.ts&#45;&gt;fs</title>
<path fill="none" stroke="#c0c0c0" d="M231.8582,-211.0997C242.5483,-218.0985 255.9431,-228.8204 263,-242.0575 289.7074,-292.1547 296.1895,-469.6771 297.6237,-528.7667"/>
<polygon fill="#c0c0c0" stroke="#c0c0c0" points="294.1281,-529.0123 297.8477,-538.9327 301.1264,-528.858 294.1281,-529.0123"/>
</g>
<!-- src/cliDocs/index.ts -->
<g id="node7" class="node">
<title>src/cliDocs/index.ts</title>
<g id="a_node7"><a xlink:href="src/cliDocs/index.ts" xlink:title="index.ts">
<path fill="#ddfeff" stroke="#000000" d="M148.5,-271.0575C148.5,-271.0575 106.5,-271.0575 106.5,-271.0575 103.5,-271.0575 100.5,-268.0575 100.5,-265.0575 100.5,-265.0575 100.5,-259.0575 100.5,-259.0575 100.5,-256.0575 103.5,-253.0575 106.5,-253.0575 106.5,-253.0575 148.5,-253.0575 148.5,-253.0575 151.5,-253.0575 154.5,-256.0575 154.5,-259.0575 154.5,-259.0575 154.5,-265.0575 154.5,-265.0575 154.5,-268.0575 151.5,-271.0575 148.5,-271.0575"/>
<text text-anchor="middle" x="127.5" y="-259.8575" font-family="Helvetica,sans-Serif" font-size="9.00" fill="#000000">index.ts</text>
</a>
</g>
</g>
<!-- src/cliDocs/index.ts&#45;&gt;src/loggers/colors.ts -->
<g id="edge10" class="edge">
<title>src/cliDocs/index.ts&#45;&gt;src/loggers/colors.ts</title>
<path fill="none" stroke="#000000" stroke-width="2" stroke-opacity="0.466667" d="M138.5692,-271.2798C148.3881,-279.282 163.2631,-290.9756 177,-300.0575 181.0813,-302.7559 185.5131,-305.4571 189.8763,-307.9968"/>
<polygon fill="#000000" fill-opacity="0.466667" stroke="#000000" stroke-width="2" stroke-opacity="0.466667" points="188.1744,-311.0552 198.602,-312.9302 191.6196,-304.9617 188.1744,-311.0552"/>
</g>
<!-- src/index.ts -->
<g id="node9" class="node">
<title>src/index.ts</title>
<g id="a_node9"><a xlink:href="src/index.ts" xlink:title="index.ts">
<path fill="#ddfeff" stroke="#000000" d="M64,-301.0575C64,-301.0575 22,-301.0575 22,-301.0575 19,-301.0575 16,-298.0575 16,-295.0575 16,-295.0575 16,-289.0575 16,-289.0575 16,-286.0575 19,-283.0575 22,-283.0575 22,-283.0575 64,-283.0575 64,-283.0575 67,-283.0575 70,-286.0575 70,-289.0575 70,-289.0575 70,-295.0575 70,-295.0575 70,-298.0575 67,-301.0575 64,-301.0575"/>
<text text-anchor="middle" x="43" y="-289.8575" font-family="Helvetica,sans-Serif" font-size="9.00" fill="#000000">index.ts</text>
</a>
</g>
</g>
<!-- src/index.ts&#45;&gt;fs -->
<g id="edge15" class="edge">
<title>src/index.ts&#45;&gt;fs</title>
<path fill="none" stroke="#c0c0c0" d="M43.8277,-301.2196C46.9742,-334.5872 58.9846,-449.2686 78,-480.0575 107.0061,-527.023 124.6744,-537.4751 177,-555.0575 204.0519,-564.1475 236.4018,-561.6413 260.8433,-557.2746"/>
<polygon fill="#c0c0c0" stroke="#c0c0c0" points="261.6588,-560.6814 270.7956,-555.3176 260.3082,-553.8129 261.6588,-560.6814"/>
</g>
<!-- src/index.ts&#45;&gt;path -->
<g id="edge16" class="edge">
<title>src/index.ts&#45;&gt;path</title>
<path fill="none" stroke="#c0c0c0" d="M43.6771,-282.8304C47.3446,-240.6366 68.8984,-65.6977 177,-9.0575 204.3812,5.2889 240.0651,-.3945 265.5733,-7.877"/>
<polygon fill="#c0c0c0" stroke="#c0c0c0" points="264.5602,-11.2274 275.1502,-10.9092 266.6731,-4.5539 264.5602,-11.2274"/>
</g>
<!-- src/index.ts&#45;&gt;src/apis/AvantationAPI.ts -->
<g id="edge11" class="edge">
<title>src/index.ts&#45;&gt;src/apis/AvantationAPI.ts</title>
<path fill="none" stroke="#000000" stroke-width="2" stroke-opacity="0.466667" d="M48.2582,-283.008C54.5762,-272.5376 65.8538,-255.0711 78,-242.0575 86.3411,-233.1208 96.7183,-224.4373 105.8137,-217.4574"/>
<polygon fill="#000000" fill-opacity="0.466667" stroke="#000000" stroke-width="2" stroke-opacity="0.466667" points="108.1043,-220.1154 114.0329,-211.3346 103.9225,-214.5018 108.1043,-220.1154"/>
</g>
<!-- src/index.ts&#45;&gt;src/cliDocs/index.ts -->
<g id="edge12" class="edge">
<title>src/index.ts&#45;&gt;src/cliDocs/index.ts</title>
<path fill="none" stroke="#000000" stroke-width="2" stroke-opacity="0.466667" d="M68.3528,-283.0566C75.8871,-280.3817 84.2797,-277.402 92.3206,-274.5473"/>
<polygon fill="#000000" fill-opacity="0.466667" stroke="#000000" stroke-width="2" stroke-opacity="0.466667" points="93.6204,-277.7999 101.8731,-271.1559 91.2783,-271.2033 93.6204,-277.7999"/>
</g>
<!-- src/loggers/OclifLogger.ts -->
<g id="node14" class="node">
<title>src/loggers/OclifLogger.ts</title>
<g id="a_node14"><a xlink:href="src/loggers/OclifLogger.ts" xlink:title="OclifLogger.ts">
<path fill="#ddfeff" stroke="#000000" d="M158,-331.0575C158,-331.0575 97,-331.0575 97,-331.0575 94,-331.0575 91,-328.0575 91,-325.0575 91,-325.0575 91,-319.0575 91,-319.0575 91,-316.0575 94,-313.0575 97,-313.0575 97,-313.0575 158,-313.0575 158,-313.0575 161,-313.0575 164,-316.0575 164,-319.0575 164,-319.0575 164,-325.0575 164,-325.0575 164,-328.0575 161,-331.0575 158,-331.0575"/>
<text text-anchor="middle" x="127.5" y="-319.8575" font-family="Helvetica,sans-Serif" font-size="9.00" fill="#000000">OclifLogger.ts</text>
</a>
</g>
</g>
<!-- src/index.ts&#45;&gt;src/loggers/OclifLogger.ts -->
<g id="edge13" class="edge">
<title>src/index.ts&#45;&gt;src/loggers/OclifLogger.ts</title>
<path fill="none" stroke="#000000" stroke-width="2" stroke-opacity="0.466667" d="M68.3528,-301.0585C75.8871,-303.7334 84.2797,-306.7131 92.3206,-309.5678"/>
<polygon fill="#000000" fill-opacity="0.466667" stroke="#000000" stroke-width="2" stroke-opacity="0.466667" points="91.2783,-312.9118 101.8731,-312.9592 93.6204,-306.3152 91.2783,-312.9118"/>
</g>
<!-- src/templates/openApi3.ts -->
<g id="node17" class="node">
<title>src/templates/openApi3.ts</title>
<g id="a_node17"><a xlink:href="src/templates/openApi3.ts" xlink:title="openApi3.ts">
<path fill="#ddfeff" stroke="#000000" d="M154,-421.0575C154,-421.0575 101,-421.0575 101,-421.0575 98,-421.0575 95,-418.0575 95,-415.0575 95,-415.0575 95,-409.0575 95,-409.0575 95,-406.0575 98,-403.0575 101,-403.0575 101,-403.0575 154,-403.0575 154,-403.0575 157,-403.0575 160,-406.0575 160,-409.0575 160,-409.0575 160,-415.0575 160,-415.0575 160,-418.0575 157,-421.0575 154,-421.0575"/>
<text text-anchor="middle" x="127.5" y="-409.8575" font-family="Helvetica,sans-Serif" font-size="9.00" fill="#000000">openApi3.ts</text>
</a>
</g>
</g>
<!-- src/index.ts&#45;&gt;src/templates/openApi3.ts -->
<g id="edge14" class="edge">
<title>src/index.ts&#45;&gt;src/templates/openApi3.ts</title>
<path fill="none" stroke="#000000" stroke-width="2" stroke-opacity="0.466667" d="M43.8636,-301.1161C46.1178,-319.996 53.7973,-363.9628 78,-390.0575 80.8778,-393.1604 84.2734,-395.8521 87.9158,-398.1814"/>
<polygon fill="#000000" fill-opacity="0.466667" stroke="#000000" stroke-width="2" stroke-opacity="0.466667" points="86.2787,-401.2752 96.7352,-402.9817 89.6252,-395.1269 86.2787,-401.2752"/>
</g>
<!-- src/interfaces/Har.ts -->
<g id="node10" class="node">
<title>src/interfaces/Har.ts</title>
<g id="a_node10"><a xlink:href="src/interfaces/Har.ts" xlink:title="Har.ts">
<path fill="#ddfeff" stroke="#000000" d="M237,-121.0575C237,-121.0575 195,-121.0575 195,-121.0575 192,-121.0575 189,-118.0575 189,-115.0575 189,-115.0575 189,-109.0575 189,-109.0575 189,-106.0575 192,-103.0575 195,-103.0575 195,-103.0575 237,-103.0575 237,-103.0575 240,-103.0575 243,-106.0575 243,-109.0575 243,-109.0575 243,-115.0575 243,-115.0575 243,-118.0575 240,-121.0575 237,-121.0575"/>
<text text-anchor="middle" x="216" y="-109.8575" font-family="Helvetica,sans-Serif" font-size="9.00" fill="#000000">Har.ts</text>
</a>
</g>
</g>
<!-- src/interfaces/OpenApi.ts -->
<g id="node11" class="node">
<title>src/interfaces/OpenApi.ts</title>
<g id="a_node11"><a xlink:href="src/interfaces/OpenApi.ts" xlink:title="OpenApi.ts">
<path fill="#ddfeff" stroke="#000000" d="M241,-91.0575C241,-91.0575 191,-91.0575 191,-91.0575 188,-91.0575 185,-88.0575 185,-85.0575 185,-85.0575 185,-79.0575 185,-79.0575 185,-76.0575 188,-73.0575 191,-73.0575 191,-73.0575 241,-73.0575 241,-73.0575 244,-73.0575 247,-76.0575 247,-79.0575 247,-79.0575 247,-85.0575 247,-85.0575 247,-88.0575 244,-91.0575 241,-91.0575"/>
<text text-anchor="middle" x="216" y="-79.8575" font-family="Helvetica,sans-Serif" font-size="9.00" fill="#000000">OpenApi.ts</text>
</a>
</g>
</g>
<!-- src/interfaces/index.ts&#45;&gt;path -->
<g id="edge17" class="edge">
<title>src/interfaces/index.ts&#45;&gt;path</title>
<path fill="none" stroke="#c0c0c0" d="M239.2786,-42.9732C247.3287,-39.8317 256.5074,-36.2498 265.1776,-32.8663"/>
<polygon fill="#c0c0c0" stroke="#c0c0c0" points="266.6199,-36.0606 274.6632,-29.1646 264.075,-29.5395 266.6199,-36.0606"/>
</g>
<!-- src/loggers/Logger.ts -->
<g id="node13" class="node">
<title>src/loggers/Logger.ts</title>
<g id="a_node13"><a xlink:href="src/loggers/Logger.ts" xlink:title="Logger.ts">
<path fill="#ddfeff" stroke="#000000" d="M149,-361.0575C149,-361.0575 106,-361.0575 106,-361.0575 103,-361.0575 100,-358.0575 100,-355.0575 100,-355.0575 100,-349.0575 100,-349.0575 100,-346.0575 103,-343.0575 106,-343.0575 106,-343.0575 149,-343.0575 149,-343.0575 152,-343.0575 155,-346.0575 155,-349.0575 155,-349.0575 155,-355.0575 155,-355.0575 155,-358.0575 152,-361.0575 149,-361.0575"/>
<text text-anchor="middle" x="127.5" y="-349.8575" font-family="Helvetica,sans-Serif" font-size="9.00" fill="#000000">Logger.ts</text>
</a>
</g>
</g>
<!-- src/loggers/Logger.ts&#45;&gt;src/loggers/colors.ts -->
<g id="edge18" class="edge">
<title>src/loggers/Logger.ts&#45;&gt;src/loggers/colors.ts</title>
<path fill="none" stroke="#000000" stroke-width="2" stroke-opacity="0.466667" d="M154.0529,-343.0566C162.0306,-340.3523 170.9271,-337.3365 179.4328,-334.4532"/>
<polygon fill="#000000" fill-opacity="0.466667" stroke="#000000" stroke-width="2" stroke-opacity="0.466667" points="180.8129,-337.6811 189.1599,-331.1559 178.5656,-331.0516 180.8129,-337.6811"/>
</g>
<!-- src/loggers/OclifLogger.ts&#45;&gt;src/loggers/colors.ts -->
<g id="edge19" class="edge">
<title>src/loggers/OclifLogger.ts&#45;&gt;src/loggers/colors.ts</title>
<path fill="none" stroke="#000000" stroke-width="2" stroke-opacity="0.466667" d="M164.0073,-322.0575C168.7969,-322.0575 173.7115,-322.0575 178.5171,-322.0575"/>
<polygon fill="#000000" fill-opacity="0.466667" stroke="#000000" stroke-width="2" stroke-opacity="0.466667" points="178.7721,-325.5576 188.7721,-322.0575 178.7721,-318.5576 178.7721,-325.5576"/>
</g>
<!-- src/templates/openApi2.ts -->
<g id="node16" class="node">
<title>src/templates/openApi2.ts</title>
<g id="a_node16"><a xlink:href="src/templates/openApi2.ts" xlink:title="openApi2.ts">
<path fill="#ddfeff" stroke="#000000" d="M154,-451.0575C154,-451.0575 101,-451.0575 101,-451.0575 98,-451.0575 95,-448.0575 95,-445.0575 95,-445.0575 95,-439.0575 95,-439.0575 95,-436.0575 98,-433.0575 101,-433.0575 101,-433.0575 154,-433.0575 154,-433.0575 157,-433.0575 160,-436.0575 160,-439.0575 160,-439.0575 160,-445.0575 160,-445.0575 160,-448.0575 157,-451.0575 154,-451.0575"/>
<text text-anchor="middle" x="127.5" y="-439.8575" font-family="Helvetica,sans-Serif" font-size="9.00" fill="#000000">openApi2.ts</text>
</a>
</g>
</g>
</g>
</svg>
